<svg width="123" height="52" viewBox="0 0 123 52" fill="none" xmlns="http://www.w3.org/2000/svg">
<path d="M57.1866 42.7184V31.0912H52.9415V46.0811H64.3382V42.7184H57.1866Z" fill="black"/>
<path d="M70.3993 34.2811C68.5799 34.2811 66.609 34.7511 65.2809 35.6305L66.6454 38.3929C67.4383 37.7713 68.6785 37.3862 69.7928 37.3862C71.3999 37.3862 72.1929 38.0502 72.2565 39.2283H69.949C66.3497 39.2283 64.7942 40.5564 64.7942 42.6971C64.7942 44.7106 66.3361 46.2752 69.1212 46.2752C70.8132 46.2752 71.9685 45.696 72.5476 44.5832V46.0811H76.3379V39.6346C76.3304 35.958 74.1684 34.2811 70.3993 34.2811ZM72.2611 42.3545C71.9397 43.2748 71.1467 43.7039 70.2477 43.7039C69.2849 43.7039 68.7316 43.2111 68.7316 42.5273C68.7316 41.8193 69.2015 41.3478 70.5084 41.3478H72.2641L72.2611 42.3545Z" fill="black"/>
<path d="M86.8009 30.1965V35.4878C86.0292 34.6736 84.9391 34.2885 83.5898 34.2885C80.4196 34.2885 77.871 36.5809 77.871 40.2636C77.871 43.9462 80.4196 46.2826 83.5898 46.2826C85.0877 46.2826 86.2233 45.852 86.995 44.9317V46.0885H90.8702V30.1965H86.8009ZM84.4419 43.0396C83.0485 43.0396 81.9994 42.0329 81.9994 40.256C81.9994 38.4791 83.0485 37.5148 84.4419 37.5148C85.8352 37.5148 86.8677 38.4988 86.8677 40.256C86.8677 42.0132 85.817 43.0396 84.4419 43.0396Z" fill="black"/>
<path d="M92.9478 34.4721V46.0811H97.0156V34.4721H92.9478ZM94.9825 28.8625C93.483 28.8625 92.4991 29.804 92.4991 31.0245C92.4991 32.2449 93.483 33.188 94.9825 33.188C96.4819 33.188 97.4659 32.2464 97.4659 30.9547C97.4659 29.7418 96.4804 28.8625 94.9825 28.8625Z" fill="black"/>
<path d="M110.974 40.2986C110.974 36.4644 108.191 34.2811 104.758 34.2811C101.095 34.2811 98.377 36.7645 98.377 40.2562C98.377 43.7478 101.053 46.2752 105.187 46.2752C107.392 46.2752 109.02 45.6308 110.133 44.3891L107.991 42.162C107.201 42.8472 106.45 43.1687 105.315 43.1687C103.817 43.1687 102.809 42.4819 102.466 41.3053H110.905C110.937 40.9839 110.974 40.5988 110.974 40.2986ZM102.408 39.1646C102.645 37.9426 103.523 37.1724 104.786 37.1724C106.049 37.1724 106.949 37.9426 107.164 39.1646H102.408Z" fill="black"/>
<path d="M115.455 37.9865C115.455 37.5575 115.947 37.1724 117.316 37.1724C118.483 37.1669 119.632 37.4619 120.652 38.029L121.872 35.2651C120.716 34.6238 118.917 34.2811 117.289 34.2811C113.65 34.2811 111.637 35.9489 111.637 38.1351C111.637 42.782 118.49 41.0051 118.49 42.5698C118.49 43.061 118.035 43.3597 116.671 43.3597C115.256 43.3597 113.694 42.9549 112.623 42.2908L111.41 45.0729C112.545 45.7809 114.58 46.2752 116.551 46.2752C120.318 46.2752 122.289 44.6075 122.289 42.4606C122.286 37.8562 115.455 39.5967 115.455 37.9865Z" fill="black"/>
<path d="M106.065 19.4413L108.87 16.4242V14.0272H99.085V16.9852H104.422L102.005 19.5959V22.0096H103.611C105.08 22.0096 105.679 22.5114 105.679 23.3241C105.679 24.2337 104.828 24.7356 103.533 24.7356C102.425 24.7302 101.333 24.461 100.349 23.9502C100.177 25.0172 99.7102 26.0148 99.0016 26.8309C100.334 27.4843 102.034 27.8285 103.655 27.8285C107.734 27.8285 109.552 25.624 109.552 23.3225C109.546 21.394 108.348 19.9249 106.065 19.4413Z" fill="black"/>
<path d="M71.5687 14.0272L68.7244 22.7479L65.9954 14.0272H62.478L59.6171 22.6691L56.8881 14.0272H52.9461L57.3429 27.5631H61.4364L64.1412 19.326L66.7322 27.5631H70.8258L75.2225 14.0272H71.5687Z" fill="black"/>
<path d="M85.8777 22.3416C85.8777 18.8803 83.3639 16.9078 80.268 16.9078C76.9613 16.9078 74.5067 19.1517 74.5067 22.3037C74.5067 25.4557 76.9235 27.7375 80.6562 27.7375C82.6483 27.7375 84.1175 27.1568 85.1226 26.0364L83.1896 24.0245C82.8655 24.3291 82.4843 24.5663 82.0679 24.7225C81.6515 24.8786 81.2082 24.9506 80.7638 24.9342C79.4114 24.9342 78.5017 24.3156 78.1864 23.2528H85.8049C85.8383 22.9602 85.8777 22.616 85.8777 22.3416ZM78.1454 21.3167C78.3577 20.2145 79.1506 19.5186 80.2923 19.5186C81.4339 19.5186 82.245 20.2145 82.4376 21.3167H78.1454Z" fill="black"/>
<path d="M95.6809 17.2792C95.0469 17.0302 94.3714 16.9042 93.6902 16.9078C92.4773 16.9078 91.4843 17.2565 90.7702 17.9918V13.216H87.0951V27.5646H90.5958V26.52C91.2917 27.3524 92.3166 27.7329 93.6902 27.7329C96.5315 27.7329 98.8329 25.6437 98.8329 22.2991C98.8329 19.8036 97.5336 18.0146 95.6809 17.2792ZM92.9155 24.8174C91.6784 24.8174 90.7111 23.9077 90.7111 22.3037C90.7111 20.6996 91.6784 19.8278 92.9155 19.8278C94.1527 19.8278 95.1199 20.7178 95.1199 22.3037C95.1199 23.8895 94.1542 24.8174 92.9155 24.8174Z" fill="black"/>
<path d="M46.2796 49.0451C46.2829 49.6275 46.113 50.1978 45.7916 50.6834C45.4701 51.1691 45.0116 51.5483 44.4742 51.7729C43.9368 51.9974 43.3448 52.0572 42.7734 51.9446C42.2019 51.832 41.6769 51.5521 41.2648 51.1405C40.8528 50.7289 40.5723 50.2041 40.4592 49.6328C40.346 49.0614 40.4051 48.4694 40.6291 47.9318C40.8531 47.3941 41.2318 46.9352 41.7172 46.6132C42.2025 46.2913 42.7726 46.1208 43.355 46.1235C43.7411 46.1153 44.1248 46.1852 44.4832 46.329C44.8415 46.4729 45.1671 46.6878 45.4403 46.9607C45.7135 47.2336 45.9287 47.5589 46.0729 47.9171C46.2171 48.2754 46.2874 48.659 46.2796 49.0451ZM45.7975 49.0451C45.7975 47.6457 44.765 46.5814 43.3504 46.5814C42.8578 46.5748 42.3743 46.715 41.9617 46.9843C41.5491 47.2535 41.226 47.6395 41.0336 48.0931C40.8413 48.5467 40.7883 49.0473 40.8816 49.5311C40.9749 50.0149 41.2101 50.4599 41.5573 50.8095C41.9045 51.1591 42.3479 51.3973 42.8311 51.4938C43.3142 51.5904 43.8152 51.5409 44.27 51.3516C44.7249 51.1623 45.1131 50.8418 45.3852 50.4311C45.6572 50.0203 45.8007 49.5378 45.7975 49.0451ZM44.1995 49.5773L44.9318 50.7007H44.2161L43.5672 49.7016H42.8274V50.7007H42.1118V47.4213H43.4763C44.3405 47.4213 44.8575 47.8762 44.8575 48.5615C44.8703 48.7788 44.8134 48.9945 44.695 49.1773C44.5767 49.36 44.403 49.5001 44.1995 49.5773ZM43.4338 49.1482C43.9008 49.1482 44.1661 48.9329 44.1661 48.566C44.1661 48.1991 43.9008 47.9914 43.4338 47.9914H42.8183V49.1482H43.4338Z" fill="black"/>
<path d="M35.178 9.09068L35.1189 9.05429C33.0687 7.81104 30.8369 6.89588 28.5041 6.34194L28.6557 5.71579L29.2015 3.4325L30.0126 0H16.2553L17.074 3.4325L17.6183 5.71579L17.7699 6.34194C15.4383 6.89675 13.2076 7.81186 11.1581 9.05429L11.0974 9.09219C10.0151 9.75074 8.98878 10.4972 8.02881 11.3239L15.9127 19.2078C17.2283 18.2214 18.7325 17.516 20.3322 17.1352L22.3638 25.6604L22.6579 26.893L23.1249 28.8488L23.5918 26.8885L23.8829 25.668L25.9191 17.1337C27.5198 17.5155 29.0251 18.222 30.3416 19.2093L32.7401 16.8093L35.1659 14.3835L38.23 11.3209C37.2751 10.4956 36.2544 9.74969 35.178 9.09068Z" fill="url(#paint0_linear_26_777)"/>
<path d="M35.178 9.09068L35.1189 9.05429C33.0687 7.81104 30.8369 6.89588 28.5041 6.34194L28.6557 5.71579L29.2015 3.4325L30.0126 0H16.2553L17.074 3.4325L17.6183 5.71579L17.7699 6.34194C15.4383 6.89675 13.2076 7.81186 11.1581 9.05429L11.0974 9.09219C10.0151 9.75074 8.98878 10.4972 8.02881 11.3239L15.9127 19.2078C17.2283 18.2214 18.7325 17.516 20.3322 17.1352L22.3638 25.6604L22.6579 26.893L23.1249 28.8488L23.5918 26.8885L23.8829 25.668L25.9191 17.1337C27.5198 17.5155 29.0251 18.222 30.3416 19.2093L32.7401 16.8093L35.1659 14.3835L38.23 11.3209C37.2751 10.4956 36.2544 9.74969 35.178 9.09068Z" fill="url(#paint1_linear_26_777)"/>
<path d="M42.9397 16.876L42.9048 16.8153C42.244 15.7357 41.4966 14.7115 40.67 13.7528L37.6059 16.8153L35.1801 19.2411L32.7816 21.6397C33.093 22.056 33.3771 22.492 33.6322 22.945L30.6621 24.8356C30.4907 24.7049 30.2801 24.636 30.0646 24.6401C29.849 24.6443 29.6412 24.7212 29.475 24.8584L29.4462 24.8796C29.4339 24.8756 29.4221 24.87 29.4113 24.8629L25.5361 22.7404L25.3723 23.4302L25.6088 23.5591C26.7722 24.1958 27.9346 24.8301 29.0959 25.4618L29.1187 25.4754C29.1178 25.4815 29.1178 25.4876 29.1187 25.4936C29.1053 25.5943 29.1053 25.6962 29.1187 25.7969C29.1187 25.7969 29.1187 25.8075 29.1187 25.8135L28.5926 26.1501L28.441 26.2472L23.4757 29.4083L23.1436 29.619L22.7843 29.3901L17.1413 25.8151C17.1413 25.7999 17.1413 25.7863 17.1413 25.7711C17.1413 25.6725 17.1413 25.5785 17.1413 25.4815H17.1534L18.2905 24.8614C18.8303 24.5693 19.369 24.2757 19.9067 23.9806L20.8967 23.4408L20.7315 22.7495L16.8229 24.8902C16.6832 24.7586 16.5063 24.6734 16.3163 24.6463C16.1263 24.6192 15.9326 24.6514 15.7616 24.7386C15.7054 24.7658 15.6517 24.7978 15.6009 24.8341L12.6339 22.9557C12.8916 22.4979 13.1787 22.0572 13.4935 21.6366L5.60965 13.7528C4.78259 14.7111 4.03518 15.7354 3.37488 16.8153L3.3385 16.876C1.15443 20.4911 0 24.6343 0 28.8579C0 33.0815 1.15443 37.2248 3.3385 40.8398L3.37488 40.8975C4.03286 41.978 4.77825 43.0028 5.60359 43.9615C5.97655 44.3952 6.36569 44.8146 6.77101 45.2199C7.17632 45.6252 7.59628 46.0154 8.0309 46.3904C8.98843 47.2173 10.0122 47.9642 11.092 48.6236C11.113 48.6343 11.1333 48.6465 11.1526 48.66C13.201 49.9036 15.4314 50.8188 17.7629 51.3724C21.2938 52.2072 24.9707 52.2072 28.5016 51.3724C30.8345 50.8188 33.0665 49.9036 35.1165 48.66L35.1756 48.6236C36.256 47.9639 37.2808 47.217 38.2397 46.3904C38.6733 46.0164 39.0927 45.6263 39.4981 45.2199C39.9044 44.8151 40.2925 44.3952 40.6685 43.9615C41.494 43.0021 42.2403 41.9774 42.9002 40.8975C42.9124 40.8793 42.923 40.8596 42.9351 40.8398C45.1201 37.2251 46.2751 33.0817 46.2751 28.8579C46.2751 24.6341 45.1201 20.4907 42.9351 16.876H42.9397ZM11.1011 28.8564C11.0965 27.0261 11.5114 25.2192 12.314 23.5742L15.2325 25.4239C15.2192 25.4949 15.2136 25.567 15.2158 25.6392C15.2122 25.8302 15.2689 26.0175 15.3777 26.1746C15.4866 26.3316 15.6421 26.4503 15.8223 26.514C15.8311 26.5164 15.8393 26.5205 15.8465 26.5261C15.8465 26.5261 15.8465 26.5428 15.8465 26.558C15.8465 28.4157 15.8465 30.272 15.8465 32.1267V33.5503C15.6703 33.6103 15.5161 33.7216 15.4037 33.8699C15.2913 34.0183 15.2259 34.1968 15.2158 34.3827C15.2089 34.4707 15.2119 34.5592 15.2249 34.6465L13.3358 35.8518C11.8746 33.8123 11.0908 31.3653 11.095 28.8564H11.1011ZM22.7949 40.8929C19.7223 40.8084 16.7993 39.5477 14.6291 37.371C14.3214 37.0652 14.0314 36.7423 13.7603 36.4037L15.6024 35.2332C15.6327 35.2529 15.6631 35.2726 15.6949 35.2908C15.8677 35.399 16.0708 35.4486 16.274 35.4322C16.4772 35.4158 16.6697 35.3344 16.8229 35.1999L22.1763 38.1214V38.1487C22.1659 38.2553 22.1689 38.3628 22.1854 38.4686C22.2186 38.6266 22.2918 38.7734 22.398 38.895C22.5042 39.0166 22.6398 39.1089 22.7919 39.163L22.7949 40.8929ZM16.5364 33.5488V26.5246C16.6259 26.5031 16.708 26.458 16.7744 26.3942L22.6297 30.1072C22.693 30.1368 22.7458 30.1849 22.7813 30.2452C22.7998 30.2935 22.8076 30.3452 22.804 30.3968V37.3421C22.6989 37.3843 22.6008 37.442 22.5129 37.5135L17.1489 34.5934V34.5631C17.1502 34.3639 17.0927 34.1688 16.9836 34.0021L16.923 33.9112C16.8242 33.7597 16.6892 33.6351 16.5303 33.5488H16.5364ZM29.2005 34.1553C29.1548 34.2256 29.1306 34.3078 29.1308 34.3918C29.1308 34.4585 29.1308 34.5252 29.1308 34.5934C29.1308 34.5934 29.1217 34.5934 29.1172 34.5934C28.4652 34.9543 27.8128 35.3121 27.1598 35.6668L25.6907 36.4673L23.7925 37.5044C23.7925 37.5044 23.7849 37.5044 23.7804 37.5044L23.7288 37.4756C23.6409 37.4301 23.5621 37.3861 23.4893 37.3391V37.0874C23.4893 36.9631 23.4893 36.8403 23.4893 36.7145V30.2255L23.8016 30.0269L29.5068 26.3882C29.5622 26.4411 29.6317 26.4769 29.7069 26.4913H29.7433C29.7477 26.5346 29.7477 26.5783 29.7433 26.6216C29.7433 28.4561 29.7433 30.2912 29.7433 32.1267V33.523L29.5705 33.617C29.523 33.6431 29.4829 33.6806 29.4537 33.7262C29.3846 33.776 29.3261 33.839 29.2815 33.9116C29.237 33.9842 29.2074 34.065 29.1945 34.1492L29.2005 34.1553ZM31.6582 37.377C31.2524 37.7838 30.8182 38.1613 30.3589 38.5065C28.3713 39.9969 25.9697 40.833 23.4863 40.899V39.16C23.6361 39.105 23.7693 39.0126 23.8734 38.8916C23.9774 38.7706 24.0487 38.625 24.0806 38.4686C24.0978 38.3619 24.1024 38.2535 24.0942 38.1457C24.095 38.1371 24.095 38.1285 24.0942 38.1199C25.8721 37.1476 27.6571 36.1732 29.4492 35.1968C29.6453 35.3625 29.898 35.4457 30.1542 35.4288C30.3381 35.4167 30.5146 35.3514 30.6621 35.2408L32.5133 36.4219C32.2441 36.754 31.9566 37.0708 31.6521 37.371L31.6582 37.377ZM32.9332 35.8761L31.0381 34.6632C31.0381 34.6525 31.0472 34.6419 31.0502 34.6313L31.0684 34.5767V34.3357L31.0548 34.3023C31.0411 34.269 31.029 34.2341 31.0153 34.1992C30.9857 34.1128 30.9498 34.0287 30.9077 33.9475C30.7984 33.7613 30.6265 33.6199 30.4225 33.5488V32.0979C30.4225 30.2512 30.4225 28.4046 30.4225 26.558C30.4225 26.5428 30.4225 26.5322 30.4225 26.5261L30.4438 26.517C30.591 26.4637 30.7222 26.3738 30.8251 26.2557C30.928 26.1377 30.9992 25.9955 31.032 25.8424C31.0356 25.8275 31.0412 25.8132 31.0487 25.7999L31.0699 25.7332V25.4967L31.0472 25.43V25.4178L33.9551 23.5621C34.9102 25.5154 35.3191 27.6907 35.1384 29.8575C34.9577 32.0243 34.1941 34.1019 32.9287 35.87L32.9332 35.8761ZM23.4787 23.462L23.4635 23.5257H23.4787V23.462ZM22.7889 23.4454V23.5257H22.8086L22.7889 23.4454Z" fill="url(#paint2_linear_26_777)"/>
<defs>
<linearGradient id="paint0_linear_26_777" x1="8.03336" y1="14.4274" x2="38.2421" y2="14.4274" gradientUnits="userSpaceOnUse">
<stop stop-color="#7D0BFE"/>
<stop offset="1" stop-color="#B072D2"/>
</linearGradient>
<linearGradient id="paint1_linear_26_777" x1="8.03336" y1="14.4274" x2="38.2421" y2="14.4274" gradientUnits="userSpaceOnUse">
<stop stop-color="#7D0BFE"/>
<stop offset="1" stop-color="#B072D2"/>
</linearGradient>
<linearGradient id="paint2_linear_26_777" x1="12819.1" y1="27767.5" x2="26945.5" y2="27767.5" gradientUnits="userSpaceOnUse">
<stop stop-color="#7D0BFE"/>
<stop offset="1" stop-color="#B072D2"/>
</linearGradient>
</defs>
</svg>
