<svg width="41" height="51" viewBox="0 0 41 51" fill="none" xmlns="http://www.w3.org/2000/svg">
<path d="M35.1273 50.184H5.01818C3.68728 50.184 2.41088 49.6553 1.46979 48.7142C0.528699 47.7731 0 46.4967 0 45.1658V5.02039C0 3.68948 0.528699 2.41309 1.46979 1.472C2.41088 0.530907 3.68728 0.00220781 5.01818 0.00220781H22.5818C22.6043 -0.000735937 22.6271 -0.000735937 22.6496 0.00220781H22.6646C22.6883 0.00961383 22.7127 0.0146567 22.7374 0.0172625C22.9582 0.032317 23.1765 0.0749712 23.3872 0.145226H23.4926C23.5389 0.177641 23.5826 0.21372 23.6231 0.253117C23.8964 0.374664 24.1455 0.544677 24.3582 0.754935L39.4128 15.8095C39.6231 16.0222 39.7931 16.2713 39.9146 16.5446C39.9365 16.5989 39.9557 16.6542 39.9723 16.7102L39.9974 16.7805C40.0677 16.9887 40.1078 17.207 40.1203 17.4278C40.1225 17.4528 40.1285 17.4774 40.1379 17.5006V17.5157C40.1419 17.5321 40.1445 17.5489 40.1454 17.5658V45.1658C40.1454 46.4967 39.6167 47.7731 38.6757 48.7142C37.7346 49.6553 36.4582 50.184 35.1273 50.184ZM26.1548 30.1113V42.6567H28.5133V37.5382H32.1766V35.4356H28.5133V32.2214H32.6182V30.1113H26.1548ZM16.8711 30.1113V42.6567H19.8971C20.5238 42.6877 21.1495 42.5776 21.728 42.3344C22.3064 42.0912 22.8229 41.7212 23.2392 41.2517C24.1046 40.1474 24.5381 38.7658 24.4586 37.3651V35.3327C24.517 33.9467 24.0713 32.5865 23.2041 31.5038C22.3886 30.5755 21.1968 30.0636 19.9598 30.1113H16.8711ZM7.52727 30.1113V42.6567H9.88582V38.2433H11.4565C12.5053 38.301 13.529 37.9121 14.2767 37.1744C14.989 36.3772 15.3586 35.3315 15.3055 34.2638C15.352 33.1704 14.9826 32.1 14.2717 31.268C13.9244 30.8828 13.4961 30.5794 13.0176 30.3794C12.5391 30.1794 12.0223 30.0878 11.5042 30.1113H7.52727ZM22.5818 5.02039V17.5658H35.1273L22.5818 5.02039ZM19.9372 40.5541H19.2297V32.2214H20.0878C20.3877 32.2038 20.6872 32.2616 20.9589 32.3896C21.2307 32.5175 21.466 32.7116 21.6434 32.9541C22.0122 33.7143 22.1703 34.5599 22.1001 35.403V37.5834C22.1553 38.3863 21.9821 39.1892 21.5982 39.8942C21.3957 40.1307 21.1386 40.3143 20.8492 40.4293C20.5599 40.5443 20.2469 40.5871 19.9372 40.5541ZM11.5042 36.1331H9.88331V32.2214H11.5268C11.7286 32.2236 11.9266 32.277 12.1021 32.3766C12.2777 32.4763 12.425 32.6188 12.5304 32.791C12.8014 33.2401 12.9319 33.757 12.9068 34.2814C12.9382 34.7694 12.8086 35.2542 12.5379 35.6614C12.4149 35.8158 12.2571 35.939 12.0775 36.021C11.8979 36.103 11.7015 36.1414 11.5042 36.1331Z" fill="#F4EAFF"/>
</svg>
