<svg width="62" height="77" viewBox="0 0 62 77" fill="none" xmlns="http://www.w3.org/2000/svg">
<path d="M54.25 77H7.75C5.69457 77 3.72333 76.1888 2.26992 74.7448C0.816515 73.3009 0 71.3424 0 69.3003V7.70305C0 5.66097 0.816515 3.70253 2.26992 2.25857C3.72333 0.814599 5.69457 0.00338756 7.75 0.00338756H34.875C34.9097 -0.00112919 34.9449 -0.00112919 34.9796 0.00338756H35.0029C35.0395 0.014751 35.0771 0.0224885 35.1152 0.0264867C35.4562 0.0495857 35.7934 0.115032 36.1189 0.222828H36.2816C36.3531 0.272563 36.4205 0.327922 36.4831 0.38837C36.9052 0.574867 37.2899 0.835727 37.6185 1.15834L60.8685 24.2573C61.1933 24.5837 61.4559 24.9659 61.6435 25.3853C61.6773 25.4686 61.707 25.5534 61.7326 25.6394L61.7714 25.7472C61.8799 26.0667 61.9419 26.4017 61.9613 26.7405C61.9646 26.7788 61.9738 26.8164 61.9884 26.8521V26.8752C61.9946 26.9005 61.9985 26.9262 62 26.9522V69.3003C62 71.3424 61.1835 73.3009 59.7301 74.7448C58.2767 76.1888 56.3054 77 54.25 77ZM40.393 46.2014V65.4505H44.0355V57.5969H49.693V54.3707H44.0355V49.4391H50.375V46.2014H40.393ZM26.0555 46.2014V65.4505H30.7288C31.6967 65.4981 32.663 65.329 33.5563 64.9559C34.4497 64.5827 35.2473 64.015 35.8903 63.2946C37.2267 61.6003 37.8962 59.4804 37.7735 57.3312V54.2129C37.8636 52.0863 37.1754 49.9993 35.836 48.338C34.5766 46.9136 32.736 46.1282 30.8256 46.2014H26.0555ZM11.625 46.2014V65.4505H15.2675V58.6787H17.6933C19.313 58.7672 20.894 58.1705 22.0487 57.0386C23.1488 55.8155 23.7196 54.2111 23.6375 52.5728C23.7094 50.8952 23.139 49.2527 22.041 47.9761C21.5046 47.3852 20.8432 46.9196 20.1042 46.6127C19.3652 46.3059 18.567 46.1654 17.7669 46.2014H11.625ZM34.875 7.70305V26.9522H54.25L34.875 7.70305ZM30.7908 62.2243H29.698V49.4391H31.0232C31.4864 49.4119 31.949 49.5006 32.3687 49.697C32.7884 49.8934 33.1518 50.1912 33.4258 50.5632C33.9954 51.7297 34.2395 53.0271 34.131 54.3207V57.6662C34.2163 58.8981 33.9489 60.13 33.356 61.2118C33.0431 61.5747 32.6461 61.8564 32.1992 62.0328C31.7523 62.2092 31.2689 62.275 30.7908 62.2243ZM17.7669 55.441H15.2636V49.4391H17.8018C18.1135 49.4424 18.4192 49.5244 18.6903 49.6772C18.9614 49.8301 19.189 50.0488 19.3518 50.313C19.7703 51.0021 19.9718 51.7952 19.933 52.5998C19.9816 53.3485 19.7815 54.0924 19.3634 54.7172C19.1734 54.9541 18.9297 55.1432 18.6523 55.2689C18.3749 55.3947 18.0715 55.4536 17.7669 55.441Z" fill="#EF5F5F"/>
</svg>
