<svg width="14" height="14" viewBox="0 0 14 14" fill="none" xmlns="http://www.w3.org/2000/svg">
<path d="M1.75 12.248H2.8L9.26875 5.7793L8.21875 4.7293L1.75 11.198V12.248ZM12.475 4.6918L9.2875 1.5418L10.3375 0.491797C10.625 0.204297 10.9783 0.0605469 11.3973 0.0605469C11.8158 0.0605469 12.1687 0.204297 12.4562 0.491797L13.5062 1.5418C13.7937 1.8293 13.9437 2.1763 13.9562 2.5828C13.9688 2.9888 13.8313 3.33555 13.5438 3.62305L12.475 4.6918ZM11.3875 5.79805L3.4375 13.748H0.25V10.5605L8.2 2.61055L11.3875 5.79805ZM8.74375 5.2543L8.21875 4.7293L9.26875 5.7793L8.74375 5.2543Z" fill="#7D0BFE"/>
</svg>
