<svg width="84" height="84" viewBox="0 0 84 84" fill="none" xmlns="http://www.w3.org/2000/svg">
<path d="M76.4906 39.6844L64.1812 51.9937C62.0687 54.1065 59.5606 55.7825 56.8003 56.9259C54.04 58.0694 51.0815 58.6579 48.0937 58.6579C45.106 58.6579 42.1475 58.0694 39.3872 56.9259C36.6268 55.7825 34.1188 54.1065 32.0062 51.9937C31.4854 51.5602 31.0607 51.0229 30.7592 50.416C30.4577 49.8092 30.286 49.1461 30.2551 48.4692C30.2242 47.7923 30.3348 47.1163 30.5797 46.4845C30.8247 45.8527 31.1987 45.2789 31.6779 44.7998C32.157 44.3206 32.7308 43.9466 33.3626 43.7016C33.9944 43.4566 34.6704 43.3461 35.3473 43.377C36.0242 43.4079 36.6873 43.5796 37.2941 43.8811C37.901 44.1826 38.4383 44.6073 38.8719 45.1281C41.321 47.5519 44.6277 48.9115 48.0734 48.9115C51.5192 48.9115 54.8258 47.5519 57.275 45.1281L69.5844 32.8187C72.0248 30.3783 73.3958 27.0684 73.3958 23.6172C73.3958 20.1659 72.0248 16.856 69.5844 14.4156C67.144 11.9752 63.8341 10.6042 60.3828 10.6042C56.9315 10.6042 53.6216 11.9752 51.1812 14.4156L47.2812 18.3562C46.3654 19.2721 45.1233 19.7866 43.8281 19.7866C42.5329 19.7866 41.2908 19.2721 40.375 18.3562C39.4592 17.4404 38.9447 16.1983 38.9447 14.9031C38.9447 13.6079 39.4592 12.3658 40.375 11.45L44.3156 7.50936C48.5823 3.24269 54.3691 0.845703 60.4031 0.845703C66.4371 0.845703 72.2239 3.24269 76.4906 7.50936C80.7573 11.776 83.1543 17.5629 83.1543 23.5969C83.1543 29.6308 80.7573 35.4177 76.4906 39.6844V39.6844ZM36.7187 65.6437L32.8187 69.5844C30.3783 72.0248 27.0684 73.3958 23.6172 73.3958C20.1659 73.3958 16.856 72.0248 14.4156 69.5844C11.9752 67.144 10.6042 63.8341 10.6042 60.3828C10.6042 56.9315 11.9752 53.6216 14.4156 51.1812L26.725 38.8719C29.1742 36.4481 32.4808 35.0885 35.9266 35.0885C39.3723 35.0885 42.6789 36.4481 45.1281 38.8719C46.0627 39.6498 47.2544 40.0504 48.4692 39.995C49.684 39.9395 50.8342 39.4321 51.694 38.5722C52.5539 37.7123 53.0614 36.5621 53.1168 35.3473C53.1723 34.1325 52.7717 32.9409 51.9937 32.0062C49.8839 29.8886 47.3767 28.2084 44.6161 27.0619C41.8554 25.9154 38.8955 25.3252 35.9062 25.3252C32.917 25.3252 29.9571 25.9154 27.1964 27.0619C24.4357 28.2084 21.9286 29.8886 19.8187 32.0062L7.50936 44.3156C3.24269 48.5823 0.845703 54.3691 0.845703 60.4031C0.845703 66.4371 3.24269 72.2239 7.50936 76.4906C11.776 80.7573 17.5629 83.1543 23.5969 83.1543C29.6308 83.1543 35.4177 80.7573 39.6844 76.4906L43.625 72.55C44.5408 71.6342 45.0553 70.392 45.0553 69.0969C45.0553 67.8017 44.5408 66.5596 43.625 65.6437C42.7092 64.7279 41.467 64.2134 40.1719 64.2134C38.8767 64.2134 37.6346 64.7279 36.7187 65.6437V65.6437Z" fill="#858585"/>
</svg>
